<svg id="visual" viewBox="0 0 960 540" width="960" height="540" xmlns="http://www.w3.org/2000/svg" xmlns:xlink="http://www.w3.org/1999/xlink" version="1.1"><rect x="0" y="0" width="960" height="540" fill="#e2e7ec"></rect><path d="M0 316L22.8 316.5C45.7 317 91.3 318 137 318.5C182.7 319 228.3 319 274 320.2C319.7 321.3 365.3 323.7 411.2 335.8C457 348 503 370 548.8 382.7C594.7 395.3 640.3 398.7 686 392.5C731.7 386.3 777.3 370.7 823 358.5C868.7 346.3 914.3 337.7 937.2 333.3L960 329L960 541L937.2 541C914.3 541 868.7 541 823 541C777.3 541 731.7 541 686 541C640.3 541 594.7 541 548.8 541C503 541 457 541 411.2 541C365.3 541 319.7 541 274 541C228.3 541 182.7 541 137 541C91.3 541 45.7 541 22.8 541L0 541Z" fill="#f7caca"></path><path d="M0 413L22.8 415.3C45.7 417.7 91.3 422.3 137 417C182.7 411.7 228.3 396.3 274 384.3C319.7 372.3 365.3 363.7 411.2 359.5C457 355.3 503 355.7 548.8 362.7C594.7 369.7 640.3 383.3 686 391.3C731.7 399.3 777.3 401.7 823 397.5C868.7 393.3 914.3 382.7 937.2 377.3L960 372L960 541L937.2 541C914.3 541 868.7 541 823 541C777.3 541 731.7 541 686 541C640.3 541 594.7 541 548.8 541C503 541 457 541 411.2 541C365.3 541 319.7 541 274 541C228.3 541 182.7 541 137 541C91.3 541 45.7 541 22.8 541L0 541Z" fill="#fda8ac"></path><path d="M0 400L22.8 409.3C45.7 418.7 91.3 437.3 137 441.2C182.7 445 228.3 434 274 428.5C319.7 423 365.3 423 411.2 419.3C457 415.7 503 408.3 548.8 412.2C594.7 416 640.3 431 686 430.3C731.7 429.7 777.3 413.3 823 406.7C868.7 400 914.3 403 937.2 404.5L960 406L960 541L937.2 541C914.3 541 868.7 541 823 541C777.3 541 731.7 541 686 541C640.3 541 594.7 541 548.8 541C503 541 457 541 411.2 541C365.3 541 319.7 541 274 541C228.3 541 182.7 541 137 541C91.3 541 45.7 541 22.8 541L0 541Z" fill="#ff8492"></path><path d="M0 455L22.8 455C45.7 455 91.3 455 137 451.2C182.7 447.3 228.3 439.7 274 441.5C319.7 443.3 365.3 454.7 411.2 460.5C457 466.3 503 466.7 548.8 465.3C594.7 464 640.3 461 686 463.2C731.7 465.3 777.3 472.7 823 471.7C868.7 470.7 914.3 461.3 937.2 456.7L960 452L960 541L937.2 541C914.3 541 868.7 541 823 541C777.3 541 731.7 541 686 541C640.3 541 594.7 541 548.8 541C503 541 457 541 411.2 541C365.3 541 319.7 541 274 541C228.3 541 182.7 541 137 541C91.3 541 45.7 541 22.8 541L0 541Z" fill="#ff5a7b"></path><path d="M0 494L22.8 497.3C45.7 500.7 91.3 507.3 137 507.3C182.7 507.3 228.3 500.7 274 493.8C319.7 487 365.3 480 411.2 476.5C457 473 503 473 548.8 478.2C594.7 483.3 640.3 493.7 686 497.8C731.7 502 777.3 500 823 500.8C868.7 501.7 914.3 505.3 937.2 507.2L960 509L960 541L937.2 541C914.3 541 868.7 541 823 541C777.3 541 731.7 541 686 541C640.3 541 594.7 541 548.8 541C503 541 457 541 411.2 541C365.3 541 319.7 541 274 541C228.3 541 182.7 541 137 541C91.3 541 45.7 541 22.8 541L0 541Z" fill="#ff0066"></path></svg>